HIERARCHY
ROOT Hips
{
  OFFSET 0.0273292 -0.436096 0.279869
  CHANNELS 6 Xposition Yposition Zposition Zrotation Xrotation Yrotation
  JOINT LHipJoint
  {
    OFFSET 0 0 0
    CHANNELS 6 Xposition Yposition Zposition Zrotation Xrotation Yrotation
    JOINT LeftUpLeg
    {
      OFFSET 1.36306 -1.79463 0
      CHANNELS 6 Xposition Yposition Zposition Zrotation Xrotation Yrotation
      JOINT LeftLeg
      {
        OFFSET 2.44807 -6.72613 0.000295034
        CHANNELS 6 Xposition Yposition Zposition Zrotation Xrotation Yrotation
        JOINT LeftFoot
        {
          OFFSET 2.5622 -7.03959 3.59965e-05
          CHANNELS 6 Xposition Yposition Zposition Zrotation Xrotation Yrotation
          JOINT LeftToeBase
          {
            OFFSET 0.15764 -0.43311 2.32255
            CHANNELS 6 Xposition Yposition Zposition Zrotation Xrotation Yrotation
            End Site
            {
              OFFSET 0 0 0
            }
          }
        }
      }
    }
  }
  JOINT RHipJoint
  {
    OFFSET 0 0 0
    CHANNELS 6 Xposition Yposition Zposition Zrotation Xrotation Yrotation
    JOINT RightUpLeg
    {
      OFFSET -1.30552 -1.79463 0
      CHANNELS 6 Xposition Yposition Zposition Zrotation Xrotation Yrotation
      JOINT RightLeg
      {
        OFFSET -2.54234 -6.98562 -0.000396375
        CHANNELS 6 Xposition Yposition Zposition Zrotation Xrotation Yrotation
        JOINT RightFoot
        {
          OFFSET -2.56826 -7.05623 -4.47982e-05
          CHANNELS 6 Xposition Yposition Zposition Zrotation Xrotation Yrotation
          JOINT RightToeBase
          {
            OFFSET -0.16473 -0.45259 2.36315
            CHANNELS 6 Xposition Yposition Zposition Zrotation Xrotation Yrotation
            End Site
            {
              OFFSET 0 0 0
            }
          }
        }
      }
    }
  }
  JOINT LowerBack
  {
    OFFSET 0 0 0
    CHANNELS 6 Xposition Yposition Zposition Zrotation Xrotation Yrotation
    JOINT Spine
    {
      OFFSET 0.0282699 2.03559 0
      CHANNELS 6 Xposition Yposition Zposition Zrotation Xrotation Yrotation
      JOINT Spine1
      {
        OFFSET 0.05672 2.04885 -0.04275
        CHANNELS 6 Xposition Yposition Zposition Zrotation Xrotation Yrotation
        JOINT Neck
        {
          OFFSET 0 0 0
          CHANNELS 6 Xposition Yposition Zposition Zrotation Xrotation Yrotation
          JOINT Neck1
          {
            OFFSET -0.05417 1.74624 0.17202
            CHANNELS 6 Xposition Yposition Zposition Zrotation Xrotation Yrotation
            JOINT Head
            {
              OFFSET 0.10407 1.76136 -0.12397
              CHANNELS 6 Xposition Yposition Zposition Zrotation Xrotation Yrotation
              End Site
              {
                OFFSET 0 0 0
              }
            }
          }
        }
        JOINT LeftShoulder
        {
          OFFSET 0 0 0
          CHANNELS 6 Xposition Yposition Zposition Zrotation Xrotation Yrotation
          JOINT LeftArm
          {
            OFFSET 3.36241 1.20089 -0.311211
            CHANNELS 6 Xposition Yposition Zposition Zrotation Xrotation Yrotation
            JOINT LeftForeArm
            {
              OFFSET 4.983 0.000197398 0.000166057
              CHANNELS 6 Xposition Yposition Zposition Zrotation Xrotation Yrotation
              JOINT LeftHand
              {
                OFFSET 3.48356 0 1.87849e-05
                CHANNELS 6 Xposition Yposition Zposition Zrotation Xrotation Yrotation
                JOINT LeftFingerBase
                {
                  OFFSET 0 0 0
                  CHANNELS 6 Xposition Yposition Zposition Zrotation Xrotation Yrotation
                  JOINT LeftHandIndex1
                  {
                    OFFSET 0.71526 0 0
                    CHANNELS 6 Xposition Yposition Zposition Zrotation Xrotation Yrotation
                    End Site
                    {
                      OFFSET 0 0 0
                    }
                  }
                }
                JOINT LThumb
                {
                  OFFSET 0 0 0
                  CHANNELS 6 Xposition Yposition Zposition Zrotation Xrotation Yrotation
                  End Site
                  {
                    OFFSET 0 0 0
                  }
                }
              }
            }
          }
        }
        JOINT RightShoulder
        {
          OFFSET 0 0 0
          CHANNELS 6 Xposition Yposition Zposition Zrotation Xrotation Yrotation
          JOINT RightArm
          {
            OFFSET -3.1366 1.37405 -0.404651
            CHANNELS 6 Xposition Yposition Zposition Zrotation Xrotation Yrotation
            JOINT RightForeArm
            {
              OFFSET -5.2419 -5.8808e-05 -0.000165864
              CHANNELS 6 Xposition Yposition Zposition Zrotation Xrotation Yrotation
              JOINT RightHand
              {
                OFFSET -3.44417 0 -2.00002e-05
                CHANNELS 6 Xposition Yposition Zposition Zrotation Xrotation Yrotation
                JOINT RightFingerBase
                {
                  OFFSET 0 0 0
                  CHANNELS 6 Xposition Yposition Zposition Zrotation Xrotation Yrotation
                  JOINT RightHandIndex1
                  {
                    OFFSET -0.62253 0 0
                    CHANNELS 6 Xposition Yposition Zposition Zrotation Xrotation Yrotation
                    End Site
                    {
                      OFFSET 0 0 0
                    }
                  }
                }
                JOINT RThumb
                {
                  OFFSET 0 0 0
                  CHANNELS 6 Xposition Yposition Zposition Zrotation Xrotation Yrotation
                  End Site
                  {
                    OFFSET 0 0 0
                  }
                }
              }
            }
          }
        }
      }
    }
  }
}
MOTION
Frames:	4
Frame Time:	0.00833333
-0.0169792 4.68551 1.01446 0 12.1257 -0 0 0 0 0 0 -0 1.36306 -1.79463 -4.93821e-08 15.093 -65.401 20.107 2.44722 -6.72645 -0.000195997 -104.288 65.5784 123.892 2.5622 -7.03959 4.21036e-05 -7.67757 -9.95551 -12.3592 0.15764 -0.43311 2.32255 1.59028e-15 6.36111e-15 -6.36111e-15 0 0 0 0 0 -0 -1.30552 -1.79463 -4.93821e-08 -6.7986 -54.0844 -18.0496 -2.54226 -6.98564 -6.16099e-06 35.6066 65.5309 -50.7877 -2.56826 -7.05623 3.66983e-05 8.00662 -2.65218 9.95439 -0.16473 -0.45259 2.36315 7.95139e-16 -3.18055e-15 -6.36111e-15 0 0 0 0 0 -0 0.0282701 2.03559 1.59717e-07 -0.0306352 -8.19126 -0.215016 0.05672 2.04885 -0.04275 1.2424e-17 1.59028e-15 -4.96962e-17 0 0 0 9.31803e-18 1.59028e-15 -2.48481e-17 -0.05417 1.74624 0.17202 2.25424 -30.7647 -0.641808 0.10407 1.76136 -0.12397 -1.49089e-16 -3.18055e-15 -0 0 0 0 9.31803e-18 1.59028e-15 -2.48481e-17 3.36241 1.20089 -0.31121 -80.6574 -23.0473 -121.792 4.983 -0.000170137 -5.61035e-05 -1.03553 -3.04739 -37.4701 3.48356 6.68475e-06 -4.09686e-06 9.14795e-05 0 7.52747e-05 0 0 0 1.76556e-31 -3.18055e-15 3.18055e-15 0.71526 8.88178e-16 1.77636e-15 -1.59028e-15 6.36111e-15 3.18055e-15 0 0 0 1.76556e-31 -3.18055e-15 3.18055e-15 0 0 0 9.31803e-18 1.59028e-15 -2.48481e-17 -3.1366 1.37404 -0.404649 78.1929 -22.828 121.999 -5.2419 -0.000183688 -3.89308e-05 0.62368 -2.41751 28.8436 -3.44417 3.50504e-06 -2.60298e-05 -8.64048e-05 -3.18055e-15 -0.00043782 0 0 0 -0 0 3.18055e-15 -0.62253 8.88178e-16 -8.88178e-16 -4.77083e-15 3.18055e-15 9.54166e-15 0 0 0 -0 0 3.18055e-15 
-0.0171182 4.68451 1.01408 0.0594887 12.2044 -0.0521832 0 0 0 1.72418e-34 1.59028e-15 -6.21202e-18 1.36306 -1.79463 -4.93821e-08 15.62 -66.0091 20.6496 2.44722 -6.72645 -0.000195997 -104.253 65.5848 123.854 2.5622 -7.03959 4.21036e-05 -7.67078 -10.0487 -12.4543 0.15764 -0.43311 2.32255 0 3.18055e-15 -0 0 0 0 1.72418e-34 1.59028e-15 -6.21202e-18 -1.30552 -1.79463 -4.93821e-08 -7.58769 -54.489 -18.5897 -2.54226 -6.98564 -6.16099e-06 36.5037 65.8046 -51.776 -2.56826 -7.05623 3.66983e-05 7.93028 -1.2184 9.82489 -0.16473 -0.45259 2.36315 3.18055e-15 1.59028e-15 -3.18055e-15 0 0 0 1.72418e-34 1.59028e-15 -6.21202e-18 0.0282701 2.03559 1.59717e-07 0.0251724 -7.98106 -0.205011 0.05672 2.04885 -0.04275 1.55301e-17 -1.59028e-15 4.96962e-17 0 0 0 3.10601e-18 -1.59028e-15 -9.93923e-17 -0.05417 1.74624 0.17202 2.00856 -30.9947 -0.913377 0.10407 1.76136 -0.12397 5.96354e-16 0 -5.96354e-16 0 0 0 3.10601e-18 -1.59028e-15 -9.93923e-17 3.36241 1.20089 -0.31121 -80.7484 -23.0022 -121.714 4.983 -0.000170137 -5.61035e-05 -1.02639 -3.03577 -37.3 3.48356 6.68475e-06 -4.09686e-06 9.14669e-05 -3.18055e-15 8.80328e-05 0 0 0 1.59028e-15 6.36111e-15 6.36111e-15 0.71526 1.77636e-15 0 0 0 -6.36111e-15 0 0 0 1.59028e-15 6.36111e-15 6.36111e-15 0 0 0 3.10601e-18 -1.59028e-15 -9.93923e-17 -3.1366 1.37404 -0.404649 78.1929 -22.828 121.999 -5.2419 -0.000183688 -3.89308e-05 0.713763 -2.53576 29.5434 -3.44417 3.50504e-06 -2.60298e-05 -8.64974e-05 -3.18055e-15 -0.000432213 0 0 0 -1.59028e-15 -3.18055e-15 6.36111e-15 -0.62253 0 8.88178e-16 1.59028e-15 -3.18055e-15 3.18055e-15 0 0 0 -1.59028e-15 -3.18055e-15 6.36111e-15 
-0.0174494 4.68204 1.01308 0.182156 12.2448 -0.0735288 0 0 0 -2.48481e-17 -1.59028e-15 -0 1.36306 -1.79463 -4.93821e-08 15.7959 -66.2589 20.9591 2.44722 -6.72645 -0.000195997 -104.172 65.61 123.765 2.5622 -7.03959 4.21036e-05 -7.66823 -10.062 -12.4689 0.15764 -0.43311 2.32255 3.18055e-15 -1.27222e-14 -0 0 0 0 -2.48481e-17 -1.59028e-15 -0 -1.30552 -1.79463 -4.93821e-08 -7.94197 -54.6571 -18.8531 -2.54226 -6.98564 -6.16099e-06 36.9051 65.9223 -52.2169 -2.56826 -7.05623 3.66983e-05 7.89834 -0.582486 9.53735 -0.16473 -0.45259 2.36315 -1.59028e-15 3.18055e-15 -6.36111e-15 0 0 0 -2.48481e-17 -1.59028e-15 -0 0.0282701 2.03559 1.59717e-07 0.161423 -7.51862 -0.175088 0.05672 2.04885 -0.04275 -9.31803e-18 -7.95139e-16 4.96962e-17 0 0 0 4.03781e-17 0 1.49089e-16 -0.05417 1.74624 0.17202 1.69491 -31.1127 -1.02549 0.10407 1.76136 -0.12397 -4.96962e-16 -3.18055e-15 -1.98785e-16 0 0 0 4.03781e-17 0 1.49089e-16 3.36241 1.20089 -0.31121 -81.0209 -22.979 -121.674 4.983 -0.000170137 -5.61035e-05 -1.00447 -3.00723 -36.8868 3.48356 6.68475e-06 -4.09686e-06 9.1379e-05 -3.18055e-15 0.000118739 0 0 0 -1.59028e-15 0 3.18055e-15 0.71526 0 0 3.18055e-15 3.18055e-15 -3.18055e-15 0 0 0 -1.59028e-15 0 3.18055e-15 0 0 0 4.03781e-17 0 1.49089e-16 -3.1366 1.37404 -0.404649 78.1929 -22.828 121.999 -5.2419 -0.000183688 -3.89308e-05 0.734644 -2.57484 30.161 -3.44417 3.50504e-06 -2.60298e-05 -8.67062e-05 3.18055e-15 -0.00041846 0 0 0 -1.59028e-15 0 -0 -0.62253 0 1.77636e-15 -3.18055e-15 0 -0 0 0 0 -1.59028e-15 0 -0 
-0.0178439 4.67892 1.01174 0.330977 12.2597 -0.0827246 0 0 0 6.21202e-18 0 -0 1.36306 -1.79463 -4.93821e-08 15.7998 -66.3558 21.1398 2.44722 -6.72645 -0.000195997 -104.052 65.6485 123.635 2.5622 -7.03959 4.21036e-05 -7.66239 -10.0753 -12.4826 0.15764 -0.43311 2.32255 4.77083e-15 -9.54166e-15 -6.36111e-15 0 0 0 6.21202e-18 0 -0 -1.30552 -1.79463 -4.93821e-08 -8.08687 -54.7282 -18.9553 -2.54226 -6.98564 -6.16099e-06 37.0708 65.9701 -52.3989 -2.56826 -7.05623 3.66983e-05 7.88531 -0.323679 9.20208 -0.16473 -0.45259 2.36315 -0 -3.18055e-15 -0 0 0 0 6.21202e-18 0 -0 0.0282701 2.03559 1.59717e-07 0.331363 -7.05617 -0.125367 0.05672 2.04885 -0.04275 -1.2424e-17 0 -0 0 0 0 -6.21202e-18 7.95139e-16 -4.96962e-17 -0.05417 1.74624 0.17202 1.34985 -31.1561 -1.07365 0.10407 1.76136 -0.12397 1.98785e-16 3.18055e-15 -1.98785e-16 0 0 0 -6.21202e-18 7.95139e-16 -4.96962e-17 3.36241 1.20089 -0.31121 -81.3564 -22.9704 -121.66 4.983 -0.000170137 -5.61035e-05 -0.977949 -2.97135 -36.3764 3.48356 6.68475e-06 -4.09686e-06 9.11405e-05 3.18055e-15 0.000156044 0 0 0 -1.59028e-15 -6.36111e-15 -3.18055e-15 0.71526 -8.88178e-16 -8.88178e-16 -1.59028e-15 -3.18055e-15 -3.18055e-15 0 0 0 -1.59028e-15 -6.36111e-15 -3.18055e-15 0 0 0 -6.21202e-18 7.95139e-16 -4.96962e-17 -3.1366 1.37404 -0.404649 78.1929 -22.828 121.999 -5.2419 -0.000183688 -3.89308e-05 0.726897 -2.58289 30.7456 -3.44417 3.50504e-06 -2.60298e-05 -8.69273e-05 3.18055e-15 -0.00040116 0 0 0 7.06225e-31 6.36111e-15 -6.36111e-15 -0.62253 0 1.77636e-15 7.06225e-31 6.36111e-15 -6.36111e-15 0 0 0 7.06225e-31 6.36111e-15 -6.36111e-15 
